<svg width="1075" height="1090" viewBox="0 0 1075 1090" fill="none" xmlns="http://www.w3.org/2000/svg">
<path d="M435.69 905.416C465.332 893.083 489.473 868.109 500.794 838.066C510.435 812.442 511.009 783.96 521.861 758.813C542.268 711.514 594.155 686.223 643.998 673.211C693.849 660.206 746.775 655.026 791.802 630.02C812.273 618.647 830.406 603.521 847.848 587.894C878.324 560.606 908.543 528.986 916.529 488.862C922.989 456.381 913.615 422.306 897.001 393.663C880.379 365.029 856.94 341.03 833.18 317.972C810.651 296.119 783.136 278.793 754.714 265.484C702.69 241.127 645.739 243.526 589.532 255.405C505.093 273.249 422.862 301.575 345.353 339.529C296.621 363.395 247.658 393.065 220.248 439.908C203.301 468.867 195.856 502.445 192.115 535.793C188.447 568.441 188.155 601.837 195.837 633.78C206.2 676.903 230.187 714.706 244.767 756.255C254.405 783.729 250.019 812.038 258.054 839.017C277.447 904.099 379.479 928.803 435.69 905.416Z" fill="url(#paint0_linear_2101_5351)"/>
<path d="M407.947 736.513C446.884 727.965 460.63 687.357 477.181 649.557C506.922 581.666 571.028 584.898 622.886 553.187C651.199 535.882 685.951 502.651 685.683 457.556C685.009 341.097 465.288 338.049 391.035 371.878C224.143 447.91 235.95 774.421 407.939 736.519L407.947 736.513Z" fill="url(#paint1_linear_2101_5351)" fill-opacity="0.5"/>
<path d="M406.225 243.62C462.658 227.275 563.676 267.541 607.502 342.988C642.129 402.6 640.05 533.702 737.195 524.858" stroke="#FF58CA"/>
<path d="M639 333C648.454 331.711 649.597 330.666 651 322C652.408 330.666 653.546 331.711 663 333C653.546 334.289 652.408 335.334 651.005 344C649.597 335.334 648.459 334.289 639.005 333L639 333Z" fill="#FF83E2" fill-opacity="0.2"/>
<defs>
<linearGradient id="paint0_linear_2101_5351" x1="-170.088" y1="-76.1499" x2="787.869" y2="528.21" gradientUnits="userSpaceOnUse">
<stop stop-color="#FF57D8"/>
<stop offset="1" stop-color="#993482" stop-opacity="0"/>
</linearGradient>
<linearGradient id="paint1_linear_2101_5351" x1="663.075" y1="345.136" x2="310.715" y2="590.406" gradientUnits="userSpaceOnUse">
<stop offset="0.07" stop-color="#FF57D8" stop-opacity="0.6"/>
<stop offset="1" stop-color="#EB33AC" stop-opacity="0"/>
</linearGradient>
</defs>
</svg>
