<svg width="945" height="958" viewBox="0 0 945 958" fill="none" xmlns="http://www.w3.org/2000/svg">
<path d="M440.134 827.927C421.733 814.577 409.192 793.418 406.314 770.867C403.869 751.636 408.137 731.92 404.78 712.819C398.468 676.892 366.864 650.971 334.658 633.844C302.445 616.721 266.832 604.484 239.908 579.883C227.668 568.696 217.653 555.306 208.197 541.683C191.67 517.893 176.03 491.161 177.1 462.212C177.97 438.777 190.008 416.838 206.144 399.826C222.285 382.822 242.362 370.128 262.507 358.134C281.606 346.769 303.399 339.34 325.159 334.825C364.988 326.566 403.829 337.546 440.605 354.934C495.854 381.056 547.864 414.037 595.045 452.878C624.708 477.3 653.58 505.759 664.791 542.518C671.724 565.244 671.354 589.596 668.469 613.182C665.649 636.274 660.381 659.329 649.857 680.077C635.656 708.087 612.94 730.202 596.091 756.437C584.952 773.786 583.337 794.006 573.383 811.277C549.365 852.936 475.028 853.245 440.134 827.927Z" fill="url(#paint0_linear_2101_5357)"/>
<path d="M525.107 763.111C546.995 744.227 541.755 713.584 539.273 683.764C534.825 630.201 576.829 610.15 598.967 572.035C611.057 551.23 621.761 518.047 606.035 489.375C565.433 415.325 424.234 489.173 388.541 536.364C308.317 642.429 428.476 846.619 525.104 763.117L525.107 763.111Z" fill="url(#paint1_linear_2101_5357)"/>
<path d="M457.895 324.334C470.106 322.577 471.583 321.151 473.395 309.334C475.214 321.151 476.684 322.577 488.895 324.334C476.684 326.091 475.214 327.517 473.402 339.334C471.583 327.517 470.113 326.091 457.902 324.334L457.895 324.334Z" fill="#FF83E2" fill-opacity="0.2"/>
<path d="M497.895 359.834C506.561 358.604 507.609 357.606 508.895 349.334C510.186 357.606 511.229 358.604 519.895 359.834C511.229 361.064 510.186 362.062 508.9 370.334C507.609 362.062 506.566 361.064 497.9 359.834L497.895 359.834Z" fill="#FF83E2" fill-opacity="0.2"/>
<defs>
<linearGradient id="paint0_linear_2101_5357" x1="1018.21" y1="250.928" x2="328.786" y2="546.807" gradientUnits="userSpaceOnUse">
<stop stop-color="#FF57D8"/>
<stop offset="1" stop-color="#993482" stop-opacity="0"/>
</linearGradient>
<linearGradient id="paint1_linear_2101_5357" x1="552.836" y1="425.467" x2="412.69" y2="703.457" gradientUnits="userSpaceOnUse">
<stop offset="0.07" stop-color="#FF57D8" stop-opacity="0.6"/>
<stop offset="1" stop-color="#EB33AC" stop-opacity="0"/>
</linearGradient>
</defs>
</svg>
